<mxfile host="app.diagrams.net" modified="2022-05-04T07:00:45.910Z" agent="5.0 (Windows NT 10.0; Win64; x64) AppleWebKit/537.36 (KHTML, like Gecko) Chrome/100.0.4896.127 Safari/537.36" etag="UbIEJjSDmxTsl0xgloA9" version="17.5.0" type="github">
  <diagram id="ZLm3gOEqDaADDMG7zsBQ" name="Page-1">
    <mxGraphModel dx="1483" dy="827" grid="1" gridSize="10" guides="1" tooltips="1" connect="1" arrows="1" fold="1" page="1" pageScale="1" pageWidth="850" pageHeight="1100" math="0" shadow="0">
      <root>
        <mxCell id="0" />
        <mxCell id="1" parent="0" />
        <mxCell id="WpvP-rq0O9A4-NwhxeJN-8" value="" style="fillColor=none;strokeColor=#5A6C86;dashed=1;verticalAlign=top;fontStyle=0;fontColor=#5A6C86;" parent="1" vertex="1">
          <mxGeometry x="700" y="40" width="180" height="160" as="geometry" />
        </mxCell>
        <mxCell id="sWBqQdJsFsiWwsDBz4wd-2" value="AWS Cloud" style="points=[[0,0],[0.25,0],[0.5,0],[0.75,0],[1,0],[1,0.25],[1,0.5],[1,0.75],[1,1],[0.75,1],[0.5,1],[0.25,1],[0,1],[0,0.75],[0,0.5],[0,0.25]];outlineConnect=0;gradientColor=none;html=1;whiteSpace=wrap;fontSize=12;fontStyle=0;container=1;pointerEvents=0;collapsible=0;recursiveResize=0;shape=mxgraph.aws4.group;grIcon=mxgraph.aws4.group_aws_cloud_alt;strokeColor=#232F3E;fillColor=none;verticalAlign=top;align=left;spacingLeft=30;fontColor=#232F3E;dashed=0;" parent="1" vertex="1">
          <mxGeometry x="20" y="280" width="1020" height="1900" as="geometry" />
        </mxCell>
        <mxCell id="sWBqQdJsFsiWwsDBz4wd-3" value="Region" style="points=[[0,0],[0.25,0],[0.5,0],[0.75,0],[1,0],[1,0.25],[1,0.5],[1,0.75],[1,1],[0.75,1],[0.5,1],[0.25,1],[0,1],[0,0.75],[0,0.5],[0,0.25]];outlineConnect=0;gradientColor=none;html=1;whiteSpace=wrap;fontSize=12;fontStyle=0;container=1;pointerEvents=0;collapsible=0;recursiveResize=0;shape=mxgraph.aws4.group;grIcon=mxgraph.aws4.group_region;strokeColor=#147EBA;fillColor=none;verticalAlign=top;align=left;spacingLeft=30;fontColor=#147EBA;dashed=1;" parent="sWBqQdJsFsiWwsDBz4wd-2" vertex="1">
          <mxGeometry x="20" y="40" width="980" height="1840" as="geometry" />
        </mxCell>
        <mxCell id="sWBqQdJsFsiWwsDBz4wd-5" value="VPC" style="points=[[0,0],[0.25,0],[0.5,0],[0.75,0],[1,0],[1,0.25],[1,0.5],[1,0.75],[1,1],[0.75,1],[0.5,1],[0.25,1],[0,1],[0,0.75],[0,0.5],[0,0.25]];outlineConnect=0;gradientColor=none;html=1;whiteSpace=wrap;fontSize=12;fontStyle=0;container=1;pointerEvents=0;collapsible=0;recursiveResize=0;shape=mxgraph.aws4.group;grIcon=mxgraph.aws4.group_vpc;strokeColor=#248814;fillColor=none;verticalAlign=top;align=left;spacingLeft=30;fontColor=#AAB7B8;dashed=0;" parent="sWBqQdJsFsiWwsDBz4wd-3" vertex="1">
          <mxGeometry x="140" y="30" width="330" height="220" as="geometry" />
        </mxCell>
        <mxCell id="sWBqQdJsFsiWwsDBz4wd-17" style="edgeStyle=orthogonalEdgeStyle;rounded=0;orthogonalLoop=1;jettySize=auto;html=1;startArrow=classic;startFill=1;" parent="sWBqQdJsFsiWwsDBz4wd-5" source="sWBqQdJsFsiWwsDBz4wd-14" target="sWBqQdJsFsiWwsDBz4wd-16" edge="1">
          <mxGeometry relative="1" as="geometry" />
        </mxCell>
        <mxCell id="sWBqQdJsFsiWwsDBz4wd-14" value="Connector Farget" style="sketch=0;points=[[0,0,0],[0.25,0,0],[0.5,0,0],[0.75,0,0],[1,0,0],[0,1,0],[0.25,1,0],[0.5,1,0],[0.75,1,0],[1,1,0],[0,0.25,0],[0,0.5,0],[0,0.75,0],[1,0.25,0],[1,0.5,0],[1,0.75,0]];outlineConnect=0;fontColor=#232F3E;gradientColor=#F78E04;gradientDirection=north;fillColor=#D05C17;strokeColor=#ffffff;dashed=0;verticalLabelPosition=bottom;verticalAlign=top;align=center;html=1;fontSize=12;fontStyle=0;aspect=fixed;shape=mxgraph.aws4.resourceIcon;resIcon=mxgraph.aws4.fargate;" parent="sWBqQdJsFsiWwsDBz4wd-5" vertex="1">
          <mxGeometry x="97" y="100" width="78" height="78" as="geometry" />
        </mxCell>
        <mxCell id="sWBqQdJsFsiWwsDBz4wd-16" value="VPC Endpoint" style="sketch=0;outlineConnect=0;fontColor=#232F3E;gradientColor=none;fillColor=#4D27AA;strokeColor=none;dashed=0;verticalLabelPosition=bottom;verticalAlign=top;align=center;html=1;fontSize=12;fontStyle=0;aspect=fixed;pointerEvents=1;shape=mxgraph.aws4.endpoints;" parent="sWBqQdJsFsiWwsDBz4wd-5" vertex="1">
          <mxGeometry x="240" y="100" width="78" height="78" as="geometry" />
        </mxCell>
        <mxCell id="sWBqQdJsFsiWwsDBz4wd-15" style="edgeStyle=orthogonalEdgeStyle;rounded=0;orthogonalLoop=1;jettySize=auto;html=1;startArrow=classic;startFill=1;" parent="sWBqQdJsFsiWwsDBz4wd-3" source="sWBqQdJsFsiWwsDBz4wd-10" target="sWBqQdJsFsiWwsDBz4wd-14" edge="1">
          <mxGeometry relative="1" as="geometry" />
        </mxCell>
        <mxCell id="sWBqQdJsFsiWwsDBz4wd-10" value="VPN Gateway" style="outlineConnect=0;dashed=0;verticalLabelPosition=bottom;verticalAlign=top;align=center;html=1;shape=mxgraph.aws3.vpn_gateway;fillColor=#F58536;gradientColor=none;" parent="sWBqQdJsFsiWwsDBz4wd-3" vertex="1">
          <mxGeometry x="241" y="10" width="69" height="72" as="geometry" />
        </mxCell>
        <mxCell id="sWBqQdJsFsiWwsDBz4wd-20" style="edgeStyle=orthogonalEdgeStyle;rounded=0;orthogonalLoop=1;jettySize=auto;html=1;startArrow=classic;startFill=1;" parent="sWBqQdJsFsiWwsDBz4wd-3" source="sWBqQdJsFsiWwsDBz4wd-16" target="sWBqQdJsFsiWwsDBz4wd-19" edge="1">
          <mxGeometry relative="1" as="geometry" />
        </mxCell>
        <mxCell id="yjxdZcu7dKZ7Ev10e8hE-39" value="" style="group" vertex="1" connectable="0" parent="sWBqQdJsFsiWwsDBz4wd-3">
          <mxGeometry x="40" y="280" width="920" height="1540" as="geometry" />
        </mxCell>
        <mxCell id="sWBqQdJsFsiWwsDBz4wd-18" value="VPC" style="points=[[0,0],[0.25,0],[0.5,0],[0.75,0],[1,0],[1,0.25],[1,0.5],[1,0.75],[1,1],[0.75,1],[0.5,1],[0.25,1],[0,1],[0,0.75],[0,0.5],[0,0.25]];outlineConnect=0;gradientColor=none;html=1;whiteSpace=wrap;fontSize=12;fontStyle=0;container=1;pointerEvents=0;collapsible=0;recursiveResize=0;shape=mxgraph.aws4.group;grIcon=mxgraph.aws4.group_vpc;strokeColor=#248814;fillColor=none;verticalAlign=top;align=left;spacingLeft=30;fontColor=#AAB7B8;dashed=0;" parent="yjxdZcu7dKZ7Ev10e8hE-39" vertex="1">
          <mxGeometry width="920" height="1540" as="geometry" />
        </mxCell>
        <mxCell id="yjxdZcu7dKZ7Ev10e8hE-45" value="Availability Zone - 1" style="fillColor=none;strokeColor=#147EBA;dashed=1;verticalAlign=bottom;fontStyle=0;fontColor=#147EBA;labelPosition=center;verticalLabelPosition=top;align=center;" vertex="1" parent="sWBqQdJsFsiWwsDBz4wd-18">
          <mxGeometry x="100" y="219" width="380" height="1301" as="geometry" />
        </mxCell>
        <mxCell id="yjxdZcu7dKZ7Ev10e8hE-29" value="Private subnet" style="points=[[0,0],[0.25,0],[0.5,0],[0.75,0],[1,0],[1,0.25],[1,0.5],[1,0.75],[1,1],[0.75,1],[0.5,1],[0.25,1],[0,1],[0,0.75],[0,0.5],[0,0.25]];outlineConnect=0;gradientColor=none;html=1;whiteSpace=wrap;fontSize=12;fontStyle=0;container=1;pointerEvents=0;collapsible=0;recursiveResize=0;shape=mxgraph.aws4.group;grIcon=mxgraph.aws4.group_security_group;grStroke=0;strokeColor=#147EBA;fillColor=#E6F2F8;verticalAlign=top;align=left;spacingLeft=30;fontColor=#147EBA;dashed=0;" vertex="1" parent="sWBqQdJsFsiWwsDBz4wd-18">
          <mxGeometry x="160" y="1190" width="310" height="190" as="geometry" />
        </mxCell>
        <mxCell id="yjxdZcu7dKZ7Ev10e8hE-6" value="DB Subnet" style="points=[[0,0],[0.25,0],[0.5,0],[0.75,0],[1,0],[1,0.25],[1,0.5],[1,0.75],[1,1],[0.75,1],[0.5,1],[0.25,1],[0,1],[0,0.75],[0,0.5],[0,0.25]];outlineConnect=0;gradientColor=none;html=1;whiteSpace=wrap;fontSize=12;fontStyle=0;container=1;pointerEvents=0;collapsible=0;recursiveResize=0;shape=mxgraph.aws4.group;grIcon=mxgraph.aws4.group_security_group;grStroke=0;strokeColor=#147EBA;fillColor=#E6F2F8;verticalAlign=top;align=left;spacingLeft=30;fontColor=#147EBA;dashed=0;" vertex="1" parent="sWBqQdJsFsiWwsDBz4wd-18">
          <mxGeometry x="520" y="940" width="320" height="160" as="geometry" />
        </mxCell>
        <mxCell id="WpvP-rq0O9A4-NwhxeJN-1" value="Availability Zone - 2" style="fillColor=none;strokeColor=#147EBA;dashed=1;verticalAlign=bottom;fontStyle=0;fontColor=#147EBA;labelPosition=center;verticalLabelPosition=top;align=center;" parent="sWBqQdJsFsiWwsDBz4wd-18" vertex="1">
          <mxGeometry x="510" y="219" width="380" height="1301" as="geometry" />
        </mxCell>
        <mxCell id="yjxdZcu7dKZ7Ev10e8hE-5" value="DB Subnet" style="points=[[0,0],[0.25,0],[0.5,0],[0.75,0],[1,0],[1,0.25],[1,0.5],[1,0.75],[1,1],[0.75,1],[0.5,1],[0.25,1],[0,1],[0,0.75],[0,0.5],[0,0.25]];outlineConnect=0;gradientColor=none;html=1;whiteSpace=wrap;fontSize=12;fontStyle=0;container=1;pointerEvents=0;collapsible=0;recursiveResize=0;shape=mxgraph.aws4.group;grIcon=mxgraph.aws4.group_security_group;grStroke=0;strokeColor=#147EBA;fillColor=#E6F2F8;verticalAlign=top;align=left;spacingLeft=30;fontColor=#147EBA;dashed=0;" vertex="1" parent="sWBqQdJsFsiWwsDBz4wd-18">
          <mxGeometry x="160" y="940" width="310" height="160" as="geometry" />
        </mxCell>
        <mxCell id="yjxdZcu7dKZ7Ev10e8hE-4" value="Private subnet" style="points=[[0,0],[0.25,0],[0.5,0],[0.75,0],[1,0],[1,0.25],[1,0.5],[1,0.75],[1,1],[0.75,1],[0.5,1],[0.25,1],[0,1],[0,0.75],[0,0.5],[0,0.25]];outlineConnect=0;gradientColor=none;html=1;whiteSpace=wrap;fontSize=12;fontStyle=0;container=1;pointerEvents=0;collapsible=0;recursiveResize=0;shape=mxgraph.aws4.group;grIcon=mxgraph.aws4.group_security_group;grStroke=0;strokeColor=#147EBA;fillColor=#E6F2F8;verticalAlign=top;align=left;spacingLeft=30;fontColor=#147EBA;dashed=0;" vertex="1" parent="sWBqQdJsFsiWwsDBz4wd-18">
          <mxGeometry x="520" y="520" width="320" height="400" as="geometry" />
        </mxCell>
        <mxCell id="yjxdZcu7dKZ7Ev10e8hE-3" value="Private subnet" style="points=[[0,0],[0.25,0],[0.5,0],[0.75,0],[1,0],[1,0.25],[1,0.5],[1,0.75],[1,1],[0.75,1],[0.5,1],[0.25,1],[0,1],[0,0.75],[0,0.5],[0,0.25]];outlineConnect=0;gradientColor=none;html=1;whiteSpace=wrap;fontSize=12;fontStyle=0;container=1;pointerEvents=0;collapsible=0;recursiveResize=0;shape=mxgraph.aws4.group;grIcon=mxgraph.aws4.group_security_group;grStroke=0;strokeColor=#147EBA;fillColor=#E6F2F8;verticalAlign=top;align=left;spacingLeft=30;fontColor=#147EBA;dashed=0;" vertex="1" parent="sWBqQdJsFsiWwsDBz4wd-18">
          <mxGeometry x="160" y="520" width="310" height="400" as="geometry" />
        </mxCell>
        <mxCell id="yjxdZcu7dKZ7Ev10e8hE-1" value="Private subnet" style="points=[[0,0],[0.25,0],[0.5,0],[0.75,0],[1,0],[1,0.25],[1,0.5],[1,0.75],[1,1],[0.75,1],[0.5,1],[0.25,1],[0,1],[0,0.75],[0,0.5],[0,0.25]];outlineConnect=0;gradientColor=none;html=1;whiteSpace=wrap;fontSize=12;fontStyle=0;container=1;pointerEvents=0;collapsible=0;recursiveResize=0;shape=mxgraph.aws4.group;grIcon=mxgraph.aws4.group_security_group;grStroke=0;strokeColor=#147EBA;fillColor=#E6F2F8;verticalAlign=top;align=left;spacingLeft=30;fontColor=#147EBA;dashed=0;" vertex="1" parent="sWBqQdJsFsiWwsDBz4wd-18">
          <mxGeometry x="170" y="255" width="220" height="165" as="geometry" />
        </mxCell>
        <mxCell id="WpvP-rq0O9A4-NwhxeJN-3" style="edgeStyle=orthogonalEdgeStyle;rounded=0;orthogonalLoop=1;jettySize=auto;html=1;" parent="sWBqQdJsFsiWwsDBz4wd-18" source="sWBqQdJsFsiWwsDBz4wd-19" target="WpvP-rq0O9A4-NwhxeJN-2" edge="1">
          <mxGeometry relative="1" as="geometry" />
        </mxCell>
        <mxCell id="sWBqQdJsFsiWwsDBz4wd-19" value="VPC Endpoint Service" style="sketch=0;outlineConnect=0;fontColor=#232F3E;gradientColor=none;fillColor=#4D27AA;strokeColor=none;dashed=0;verticalLabelPosition=middle;verticalAlign=middle;align=right;html=1;fontSize=12;fontStyle=0;aspect=fixed;pointerEvents=1;shape=mxgraph.aws4.endpoints;labelPosition=left;" parent="sWBqQdJsFsiWwsDBz4wd-18" vertex="1">
          <mxGeometry x="460" y="20" width="78" height="78" as="geometry" />
        </mxCell>
        <mxCell id="WpvP-rq0O9A4-NwhxeJN-25" style="edgeStyle=orthogonalEdgeStyle;rounded=0;orthogonalLoop=1;jettySize=auto;html=1;exitX=0.5;exitY=1;exitDx=0;exitDy=0;exitPerimeter=0;startArrow=classic;startFill=1;" parent="sWBqQdJsFsiWwsDBz4wd-18" source="sWBqQdJsFsiWwsDBz4wd-22" target="WpvP-rq0O9A4-NwhxeJN-20" edge="1">
          <mxGeometry relative="1" as="geometry" />
        </mxCell>
        <mxCell id="WpvP-rq0O9A4-NwhxeJN-42" style="edgeStyle=orthogonalEdgeStyle;rounded=0;orthogonalLoop=1;jettySize=auto;html=1;exitX=0.25;exitY=1;exitDx=0;exitDy=0;exitPerimeter=0;entryX=0.5;entryY=0;entryDx=0;entryDy=0;startArrow=classic;startFill=1;" parent="sWBqQdJsFsiWwsDBz4wd-18" source="sWBqQdJsFsiWwsDBz4wd-22" target="WpvP-rq0O9A4-NwhxeJN-39" edge="1">
          <mxGeometry relative="1" as="geometry">
            <Array as="points">
              <mxPoint x="260" y="520" />
              <mxPoint x="150" y="520" />
              <mxPoint x="150" y="700" />
              <mxPoint x="410" y="700" />
            </Array>
          </mxGeometry>
        </mxCell>
        <mxCell id="WpvP-rq0O9A4-NwhxeJN-47" style="edgeStyle=orthogonalEdgeStyle;rounded=0;orthogonalLoop=1;jettySize=auto;html=1;exitX=0;exitY=0.75;exitDx=0;exitDy=0;exitPerimeter=0;startArrow=classic;startFill=1;" parent="sWBqQdJsFsiWwsDBz4wd-18" source="sWBqQdJsFsiWwsDBz4wd-22" target="WpvP-rq0O9A4-NwhxeJN-44" edge="1">
          <mxGeometry relative="1" as="geometry">
            <Array as="points">
              <mxPoint x="140" y="340" />
              <mxPoint x="140" y="890" />
              <mxPoint x="289" y="890" />
            </Array>
          </mxGeometry>
        </mxCell>
        <mxCell id="WpvP-rq0O9A4-NwhxeJN-50" style="edgeStyle=orthogonalEdgeStyle;rounded=0;orthogonalLoop=1;jettySize=auto;html=1;exitX=0;exitY=0.25;exitDx=0;exitDy=0;exitPerimeter=0;startArrow=classic;startFill=1;" parent="sWBqQdJsFsiWwsDBz4wd-18" source="sWBqQdJsFsiWwsDBz4wd-22" target="WpvP-rq0O9A4-NwhxeJN-4" edge="1">
          <mxGeometry relative="1" as="geometry" />
        </mxCell>
        <mxCell id="sWBqQdJsFsiWwsDBz4wd-22" value="Auth Cluster 1" style="sketch=0;points=[[0,0,0],[0.25,0,0],[0.5,0,0],[0.75,0,0],[1,0,0],[0,1,0],[0.25,1,0],[0.5,1,0],[0.75,1,0],[1,1,0],[0,0.25,0],[0,0.5,0],[0,0.75,0],[1,0.25,0],[1,0.5,0],[1,0.75,0]];outlineConnect=0;fontColor=#232F3E;gradientColor=#F78E04;gradientDirection=north;fillColor=#D05C17;strokeColor=#ffffff;dashed=0;verticalLabelPosition=middle;verticalAlign=middle;align=right;html=1;fontSize=12;fontStyle=0;aspect=fixed;shape=mxgraph.aws4.resourceIcon;resIcon=mxgraph.aws4.eks;labelPosition=left;" parent="sWBqQdJsFsiWwsDBz4wd-18" vertex="1">
          <mxGeometry x="240" y="281" width="78" height="78" as="geometry" />
        </mxCell>
        <mxCell id="WpvP-rq0O9A4-NwhxeJN-6" style="edgeStyle=orthogonalEdgeStyle;rounded=0;orthogonalLoop=1;jettySize=auto;html=1;entryX=0.5;entryY=0;entryDx=0;entryDy=0;entryPerimeter=0;" parent="sWBqQdJsFsiWwsDBz4wd-18" source="WpvP-rq0O9A4-NwhxeJN-2" target="sWBqQdJsFsiWwsDBz4wd-22" edge="1">
          <mxGeometry relative="1" as="geometry" />
        </mxCell>
        <mxCell id="WpvP-rq0O9A4-NwhxeJN-2" value="NLB" style="sketch=0;outlineConnect=0;fontColor=#232F3E;gradientColor=none;fillColor=#4D27AA;strokeColor=none;dashed=0;verticalLabelPosition=bottom;verticalAlign=top;align=center;html=1;fontSize=12;fontStyle=0;aspect=fixed;pointerEvents=1;shape=mxgraph.aws4.network_load_balancer;" parent="sWBqQdJsFsiWwsDBz4wd-18" vertex="1">
          <mxGeometry x="460" y="120" width="78" height="78" as="geometry" />
        </mxCell>
        <mxCell id="WpvP-rq0O9A4-NwhxeJN-4" value="Amazon Opensearch Service" style="sketch=0;outlineConnect=0;fontColor=#232F3E;gradientColor=none;strokeColor=#ffffff;fillColor=#232F3E;dashed=0;verticalLabelPosition=middle;verticalAlign=middle;align=right;html=1;whiteSpace=wrap;fontSize=10;fontStyle=1;spacing=3;shape=mxgraph.aws4.productIcon;prIcon=mxgraph.aws4.elasticsearch_service;labelPosition=left;" parent="sWBqQdJsFsiWwsDBz4wd-18" vertex="1">
          <mxGeometry x="13" y="350" width="80" height="80" as="geometry" />
        </mxCell>
        <mxCell id="WpvP-rq0O9A4-NwhxeJN-18" value="" style="group;labelPosition=center;verticalLabelPosition=top;align=center;verticalAlign=bottom;" parent="sWBqQdJsFsiWwsDBz4wd-18" vertex="1" connectable="0">
          <mxGeometry x="179" y="540" width="640" height="140" as="geometry" />
        </mxCell>
        <mxCell id="yjxdZcu7dKZ7Ev10e8hE-7" value="" style="group" vertex="1" connectable="0" parent="WpvP-rq0O9A4-NwhxeJN-18">
          <mxGeometry width="640" height="140" as="geometry" />
        </mxCell>
        <mxCell id="WpvP-rq0O9A4-NwhxeJN-13" value="" style="fillColor=none;strokeColor=#5A6C86;verticalAlign=top;fontStyle=0;fontColor=#5A6C86;" parent="yjxdZcu7dKZ7Ev10e8hE-7" vertex="1">
          <mxGeometry width="640" height="140" as="geometry" />
        </mxCell>
        <mxCell id="WpvP-rq0O9A4-NwhxeJN-14" value="Infinispan&lt;br&gt;cache" style="sketch=0;outlineConnect=0;fontColor=#232F3E;gradientColor=none;fillColor=#D45B07;strokeColor=none;dashed=0;verticalLabelPosition=bottom;verticalAlign=top;align=center;html=1;fontSize=12;fontStyle=0;aspect=fixed;pointerEvents=1;shape=mxgraph.aws4.container_1;" parent="yjxdZcu7dKZ7Ev10e8hE-7" vertex="1">
          <mxGeometry x="62" y="54.5" width="48" height="31" as="geometry" />
        </mxCell>
        <mxCell id="WpvP-rq0O9A4-NwhxeJN-15" value="Hashicorp&lt;br&gt;Vault" style="sketch=0;outlineConnect=0;fontColor=#232F3E;gradientColor=none;fillColor=#D45B07;strokeColor=none;dashed=0;verticalLabelPosition=bottom;verticalAlign=top;align=center;html=1;fontSize=12;fontStyle=0;aspect=fixed;pointerEvents=1;shape=mxgraph.aws4.container_1;" parent="yjxdZcu7dKZ7Ev10e8hE-7" vertex="1">
          <mxGeometry x="181" y="54.5" width="48" height="31" as="geometry" />
        </mxCell>
        <mxCell id="WpvP-rq0O9A4-NwhxeJN-16" value="Infinispan&lt;br&gt;cache" style="sketch=0;outlineConnect=0;fontColor=#232F3E;gradientColor=none;fillColor=#D45B07;strokeColor=none;dashed=0;verticalLabelPosition=bottom;verticalAlign=top;align=center;html=1;fontSize=12;fontStyle=0;aspect=fixed;pointerEvents=1;shape=mxgraph.aws4.container_1;" parent="yjxdZcu7dKZ7Ev10e8hE-7" vertex="1">
          <mxGeometry x="411" y="54.5" width="48" height="31" as="geometry" />
        </mxCell>
        <mxCell id="WpvP-rq0O9A4-NwhxeJN-17" value="Hashicorp&lt;br&gt;Vault" style="sketch=0;outlineConnect=0;fontColor=#232F3E;gradientColor=none;fillColor=#D45B07;strokeColor=none;dashed=0;verticalLabelPosition=bottom;verticalAlign=top;align=center;html=1;fontSize=12;fontStyle=0;aspect=fixed;pointerEvents=1;shape=mxgraph.aws4.container_1;" parent="yjxdZcu7dKZ7Ev10e8hE-7" vertex="1">
          <mxGeometry x="530" y="54.5" width="48" height="31" as="geometry" />
        </mxCell>
        <mxCell id="WpvP-rq0O9A4-NwhxeJN-19" value="EKS Cluster" style="sketch=0;points=[[0,0,0],[0.25,0,0],[0.5,0,0],[0.75,0,0],[1,0,0],[0,1,0],[0.25,1,0],[0.5,1,0],[0.75,1,0],[1,1,0],[0,0.25,0],[0,0.5,0],[0,0.75,0],[1,0.25,0],[1,0.5,0],[1,0.75,0]];outlineConnect=0;fontColor=#232F3E;gradientColor=#F78E04;gradientDirection=north;fillColor=#D05C17;strokeColor=#ffffff;dashed=0;verticalLabelPosition=bottom;verticalAlign=top;align=center;html=1;fontSize=12;fontStyle=0;aspect=fixed;shape=mxgraph.aws4.resourceIcon;resIcon=mxgraph.aws4.eks;" parent="yjxdZcu7dKZ7Ev10e8hE-7" vertex="1">
          <mxGeometry width="40" height="40" as="geometry" />
        </mxCell>
        <mxCell id="WpvP-rq0O9A4-NwhxeJN-21" value="Ingress" style="sketch=0;html=1;dashed=0;whitespace=wrap;fillColor=#2875E2;strokeColor=#ffffff;points=[[0.005,0.63,0],[0.1,0.2,0],[0.9,0.2,0],[0.5,0,0],[0.995,0.63,0],[0.72,0.99,0],[0.5,1,0],[0.28,0.99,0]];shape=mxgraph.kubernetes.icon;prIcon=ing;labelPosition=left;verticalLabelPosition=top;align=right;verticalAlign=bottom;" parent="yjxdZcu7dKZ7Ev10e8hE-7" vertex="1">
          <mxGeometry x="295" width="50" height="48" as="geometry" />
        </mxCell>
        <mxCell id="WpvP-rq0O9A4-NwhxeJN-22" value="Service" style="sketch=0;html=1;dashed=0;whitespace=wrap;fillColor=#2875E2;strokeColor=#ffffff;points=[[0.005,0.63,0],[0.1,0.2,0],[0.9,0.2,0],[0.5,0,0],[0.995,0.63,0],[0.72,0.99,0],[0.5,1,0],[0.28,0.99,0]];shape=mxgraph.kubernetes.icon;prIcon=svc;labelPosition=center;verticalLabelPosition=top;align=center;verticalAlign=bottom;" parent="yjxdZcu7dKZ7Ev10e8hE-7" vertex="1">
          <mxGeometry x="116" width="50" height="48" as="geometry" />
        </mxCell>
        <mxCell id="WpvP-rq0O9A4-NwhxeJN-23" value="Service" style="sketch=0;html=1;dashed=0;whitespace=wrap;fillColor=#2875E2;strokeColor=#ffffff;points=[[0.005,0.63,0],[0.1,0.2,0],[0.9,0.2,0],[0.5,0,0],[0.995,0.63,0],[0.72,0.99,0],[0.5,1,0],[0.28,0.99,0]];shape=mxgraph.kubernetes.icon;prIcon=svc;labelPosition=center;verticalLabelPosition=top;align=center;verticalAlign=bottom;" parent="yjxdZcu7dKZ7Ev10e8hE-7" vertex="1">
          <mxGeometry x="471" width="50" height="48" as="geometry" />
        </mxCell>
        <mxCell id="WpvP-rq0O9A4-NwhxeJN-27" style="edgeStyle=orthogonalEdgeStyle;rounded=0;orthogonalLoop=1;jettySize=auto;html=1;exitX=0.005;exitY=0.63;exitDx=0;exitDy=0;exitPerimeter=0;entryX=0.995;entryY=0.63;entryDx=0;entryDy=0;entryPerimeter=0;startArrow=classic;startFill=1;" parent="yjxdZcu7dKZ7Ev10e8hE-7" source="WpvP-rq0O9A4-NwhxeJN-21" target="WpvP-rq0O9A4-NwhxeJN-22" edge="1">
          <mxGeometry relative="1" as="geometry" />
        </mxCell>
        <mxCell id="WpvP-rq0O9A4-NwhxeJN-30" style="edgeStyle=orthogonalEdgeStyle;rounded=0;orthogonalLoop=1;jettySize=auto;html=1;exitX=0.005;exitY=0.63;exitDx=0;exitDy=0;exitPerimeter=0;startArrow=classic;startFill=1;" parent="yjxdZcu7dKZ7Ev10e8hE-7" source="WpvP-rq0O9A4-NwhxeJN-22" target="WpvP-rq0O9A4-NwhxeJN-14" edge="1">
          <mxGeometry relative="1" as="geometry" />
        </mxCell>
        <mxCell id="WpvP-rq0O9A4-NwhxeJN-31" style="edgeStyle=orthogonalEdgeStyle;rounded=0;orthogonalLoop=1;jettySize=auto;html=1;exitX=0.28;exitY=0.99;exitDx=0;exitDy=0;exitPerimeter=0;startArrow=classic;startFill=1;" parent="yjxdZcu7dKZ7Ev10e8hE-7" source="WpvP-rq0O9A4-NwhxeJN-22" target="WpvP-rq0O9A4-NwhxeJN-16" edge="1">
          <mxGeometry relative="1" as="geometry">
            <Array as="points">
              <mxPoint x="130" y="130" />
              <mxPoint x="435" y="130" />
            </Array>
          </mxGeometry>
        </mxCell>
        <mxCell id="WpvP-rq0O9A4-NwhxeJN-29" style="edgeStyle=orthogonalEdgeStyle;rounded=0;orthogonalLoop=1;jettySize=auto;html=1;exitX=0.995;exitY=0.63;exitDx=0;exitDy=0;exitPerimeter=0;entryX=0.005;entryY=0.63;entryDx=0;entryDy=0;entryPerimeter=0;startArrow=classic;startFill=1;" parent="yjxdZcu7dKZ7Ev10e8hE-7" source="WpvP-rq0O9A4-NwhxeJN-21" target="WpvP-rq0O9A4-NwhxeJN-23" edge="1">
          <mxGeometry relative="1" as="geometry" />
        </mxCell>
        <mxCell id="WpvP-rq0O9A4-NwhxeJN-32" style="edgeStyle=orthogonalEdgeStyle;rounded=0;orthogonalLoop=1;jettySize=auto;html=1;exitX=0.995;exitY=0.63;exitDx=0;exitDy=0;exitPerimeter=0;startArrow=classic;startFill=1;" parent="yjxdZcu7dKZ7Ev10e8hE-7" source="WpvP-rq0O9A4-NwhxeJN-23" target="WpvP-rq0O9A4-NwhxeJN-17" edge="1">
          <mxGeometry relative="1" as="geometry" />
        </mxCell>
        <mxCell id="WpvP-rq0O9A4-NwhxeJN-33" style="edgeStyle=orthogonalEdgeStyle;rounded=0;orthogonalLoop=1;jettySize=auto;html=1;exitX=0.28;exitY=0.99;exitDx=0;exitDy=0;exitPerimeter=0;startArrow=classic;startFill=1;" parent="yjxdZcu7dKZ7Ev10e8hE-7" source="WpvP-rq0O9A4-NwhxeJN-23" target="WpvP-rq0O9A4-NwhxeJN-15" edge="1">
          <mxGeometry relative="1" as="geometry">
            <Array as="points">
              <mxPoint x="205" y="48" />
            </Array>
          </mxGeometry>
        </mxCell>
        <mxCell id="WpvP-rq0O9A4-NwhxeJN-24" style="edgeStyle=orthogonalEdgeStyle;rounded=0;orthogonalLoop=1;jettySize=auto;html=1;entryX=0.5;entryY=0;entryDx=0;entryDy=0;entryPerimeter=0;startArrow=classic;startFill=1;" parent="sWBqQdJsFsiWwsDBz4wd-18" source="WpvP-rq0O9A4-NwhxeJN-20" target="WpvP-rq0O9A4-NwhxeJN-21" edge="1">
          <mxGeometry relative="1" as="geometry" />
        </mxCell>
        <mxCell id="WpvP-rq0O9A4-NwhxeJN-20" value="ALB" style="sketch=0;outlineConnect=0;fontColor=#232F3E;gradientColor=none;fillColor=#4D27AA;strokeColor=none;dashed=0;verticalLabelPosition=middle;verticalAlign=middle;align=right;html=1;fontSize=12;fontStyle=0;aspect=fixed;pointerEvents=1;shape=mxgraph.aws4.application_load_balancer;labelPosition=left;" parent="sWBqQdJsFsiWwsDBz4wd-18" vertex="1">
          <mxGeometry x="460" y="422" width="78" height="78" as="geometry" />
        </mxCell>
        <mxCell id="WpvP-rq0O9A4-NwhxeJN-34" value="" style="fillColor=none;strokeColor=#5A6C86;verticalAlign=top;fontStyle=0;fontColor=#5A6C86;" parent="sWBqQdJsFsiWwsDBz4wd-18" vertex="1">
          <mxGeometry x="179" y="720" width="641" height="130" as="geometry" />
        </mxCell>
        <mxCell id="WpvP-rq0O9A4-NwhxeJN-35" value="Kafka Cluster" style="sketch=0;points=[[0,0,0],[0.25,0,0],[0.5,0,0],[0.75,0,0],[1,0,0],[0,1,0],[0.25,1,0],[0.5,1,0],[0.75,1,0],[1,1,0],[0,0.25,0],[0,0.5,0],[0,0.75,0],[1,0.25,0],[1,0.5,0],[1,0.75,0]];outlineConnect=0;fontColor=#232F3E;gradientColor=#945DF2;gradientDirection=north;fillColor=#5A30B5;strokeColor=#ffffff;dashed=0;verticalLabelPosition=bottom;verticalAlign=top;align=center;html=1;fontSize=12;fontStyle=0;aspect=fixed;shape=mxgraph.aws4.resourceIcon;resIcon=mxgraph.aws4.managed_streaming_for_kafka;" parent="sWBqQdJsFsiWwsDBz4wd-18" vertex="1">
          <mxGeometry x="179" y="720" width="50" height="50" as="geometry" />
        </mxCell>
        <mxCell id="WpvP-rq0O9A4-NwhxeJN-38" value="Zoo Keeper 1" style="whiteSpace=wrap;html=1;" parent="sWBqQdJsFsiWwsDBz4wd-18" vertex="1">
          <mxGeometry x="250" y="755" width="80" height="55" as="geometry" />
        </mxCell>
        <mxCell id="WpvP-rq0O9A4-NwhxeJN-39" value="Broker 1" style="whiteSpace=wrap;html=1;" parent="sWBqQdJsFsiWwsDBz4wd-18" vertex="1">
          <mxGeometry x="370" y="755" width="80" height="55" as="geometry" />
        </mxCell>
        <mxCell id="WpvP-rq0O9A4-NwhxeJN-40" value="Zoo Keeper 2" style="whiteSpace=wrap;html=1;" parent="sWBqQdJsFsiWwsDBz4wd-18" vertex="1">
          <mxGeometry x="550" y="757.5" width="80" height="55" as="geometry" />
        </mxCell>
        <mxCell id="WpvP-rq0O9A4-NwhxeJN-41" value="Broker 2" style="whiteSpace=wrap;html=1;" parent="sWBqQdJsFsiWwsDBz4wd-18" vertex="1">
          <mxGeometry x="670" y="757.5" width="80" height="55" as="geometry" />
        </mxCell>
        <mxCell id="WpvP-rq0O9A4-NwhxeJN-46" style="edgeStyle=orthogonalEdgeStyle;rounded=0;orthogonalLoop=1;jettySize=auto;html=1;startArrow=classic;startFill=1;" parent="sWBqQdJsFsiWwsDBz4wd-18" source="WpvP-rq0O9A4-NwhxeJN-44" target="WpvP-rq0O9A4-NwhxeJN-45" edge="1">
          <mxGeometry relative="1" as="geometry" />
        </mxCell>
        <mxCell id="WpvP-rq0O9A4-NwhxeJN-44" value="Primary PostgreSQL DB" style="sketch=0;outlineConnect=0;fontColor=#232F3E;gradientColor=none;fillColor=#2E27AD;strokeColor=none;dashed=0;verticalLabelPosition=bottom;verticalAlign=top;align=center;html=1;fontSize=12;fontStyle=0;aspect=fixed;pointerEvents=1;shape=mxgraph.aws4.aurora_instance;" parent="sWBqQdJsFsiWwsDBz4wd-18" vertex="1">
          <mxGeometry x="250" y="960" width="78" height="78" as="geometry" />
        </mxCell>
        <mxCell id="WpvP-rq0O9A4-NwhxeJN-45" value="Secondary PostgreSQL DB" style="sketch=0;outlineConnect=0;fontColor=#232F3E;gradientColor=none;fillColor=#2E27AD;strokeColor=none;dashed=0;verticalLabelPosition=bottom;verticalAlign=top;align=center;html=1;fontSize=12;fontStyle=0;aspect=fixed;pointerEvents=1;shape=mxgraph.aws4.aurora_instance;" parent="sWBqQdJsFsiWwsDBz4wd-18" vertex="1">
          <mxGeometry x="661" y="960" width="78" height="78" as="geometry" />
        </mxCell>
        <mxCell id="WpvP-rq0O9A4-NwhxeJN-52" style="edgeStyle=orthogonalEdgeStyle;rounded=0;orthogonalLoop=1;jettySize=auto;html=1;startArrow=classic;startFill=1;" parent="sWBqQdJsFsiWwsDBz4wd-18" source="WpvP-rq0O9A4-NwhxeJN-15" target="WpvP-rq0O9A4-NwhxeJN-4" edge="1">
          <mxGeometry relative="1" as="geometry">
            <Array as="points">
              <mxPoint x="384" y="690" />
              <mxPoint x="53" y="690" />
            </Array>
          </mxGeometry>
        </mxCell>
        <mxCell id="WpvP-rq0O9A4-NwhxeJN-53" style="edgeStyle=orthogonalEdgeStyle;rounded=0;orthogonalLoop=1;jettySize=auto;html=1;startArrow=classic;startFill=1;" parent="sWBqQdJsFsiWwsDBz4wd-18" source="WpvP-rq0O9A4-NwhxeJN-17" target="WpvP-rq0O9A4-NwhxeJN-4" edge="1">
          <mxGeometry relative="1" as="geometry">
            <Array as="points">
              <mxPoint x="733" y="690" />
              <mxPoint x="53" y="690" />
            </Array>
          </mxGeometry>
        </mxCell>
        <mxCell id="yjxdZcu7dKZ7Ev10e8hE-2" value="Private subnet" style="points=[[0,0],[0.25,0],[0.5,0],[0.75,0],[1,0],[1,0.25],[1,0.5],[1,0.75],[1,1],[0.75,1],[0.5,1],[0.25,1],[0,1],[0,0.75],[0,0.5],[0,0.25]];outlineConnect=0;gradientColor=none;html=1;whiteSpace=wrap;fontSize=12;fontStyle=0;container=1;pointerEvents=0;collapsible=0;recursiveResize=0;shape=mxgraph.aws4.group;grIcon=mxgraph.aws4.group_security_group;grStroke=0;strokeColor=#147EBA;fillColor=#E6F2F8;verticalAlign=top;align=left;spacingLeft=30;fontColor=#147EBA;dashed=0;" vertex="1" parent="sWBqQdJsFsiWwsDBz4wd-18">
          <mxGeometry x="590" y="257" width="220" height="165" as="geometry" />
        </mxCell>
        <mxCell id="yjxdZcu7dKZ7Ev10e8hE-48" style="edgeStyle=orthogonalEdgeStyle;rounded=0;orthogonalLoop=1;jettySize=auto;html=1;exitX=0.5;exitY=1;exitDx=0;exitDy=0;exitPerimeter=0;startArrow=classic;startFill=1;strokeColor=#FF0080;" edge="1" parent="sWBqQdJsFsiWwsDBz4wd-18" source="WpvP-rq0O9A4-NwhxeJN-5" target="yjxdZcu7dKZ7Ev10e8hE-34">
          <mxGeometry relative="1" as="geometry">
            <Array as="points">
              <mxPoint x="700" y="400" />
              <mxPoint x="900" y="400" />
              <mxPoint x="900" y="1439" />
            </Array>
          </mxGeometry>
        </mxCell>
        <mxCell id="WpvP-rq0O9A4-NwhxeJN-5" value="Auth Cluster 2" style="sketch=0;points=[[0,0,0],[0.25,0,0],[0.5,0,0],[0.75,0,0],[1,0,0],[0,1,0],[0.25,1,0],[0.5,1,0],[0.75,1,0],[1,1,0],[0,0.25,0],[0,0.5,0],[0,0.75,0],[1,0.25,0],[1,0.5,0],[1,0.75,0]];outlineConnect=0;fontColor=#232F3E;gradientColor=#F78E04;gradientDirection=north;fillColor=#D05C17;strokeColor=#ffffff;dashed=0;verticalLabelPosition=bottom;verticalAlign=top;align=center;html=1;fontSize=12;fontStyle=0;aspect=fixed;shape=mxgraph.aws4.resourceIcon;resIcon=mxgraph.aws4.eks;labelPosition=center;" parent="sWBqQdJsFsiWwsDBz4wd-18" vertex="1">
          <mxGeometry x="661" y="281" width="78" height="78" as="geometry" />
        </mxCell>
        <mxCell id="WpvP-rq0O9A4-NwhxeJN-26" style="edgeStyle=orthogonalEdgeStyle;rounded=0;orthogonalLoop=1;jettySize=auto;html=1;startArrow=classic;startFill=1;" parent="sWBqQdJsFsiWwsDBz4wd-18" source="WpvP-rq0O9A4-NwhxeJN-5" target="WpvP-rq0O9A4-NwhxeJN-20" edge="1">
          <mxGeometry relative="1" as="geometry" />
        </mxCell>
        <mxCell id="WpvP-rq0O9A4-NwhxeJN-43" style="edgeStyle=orthogonalEdgeStyle;rounded=0;orthogonalLoop=1;jettySize=auto;html=1;exitX=1;exitY=0.75;exitDx=0;exitDy=0;exitPerimeter=0;entryX=1;entryY=0.5;entryDx=0;entryDy=0;startArrow=classic;startFill=1;" parent="sWBqQdJsFsiWwsDBz4wd-18" source="WpvP-rq0O9A4-NwhxeJN-5" target="WpvP-rq0O9A4-NwhxeJN-41" edge="1">
          <mxGeometry relative="1" as="geometry" />
        </mxCell>
        <mxCell id="WpvP-rq0O9A4-NwhxeJN-49" style="edgeStyle=orthogonalEdgeStyle;rounded=0;orthogonalLoop=1;jettySize=auto;html=1;exitX=1;exitY=0.25;exitDx=0;exitDy=0;exitPerimeter=0;startArrow=classic;startFill=1;" parent="sWBqQdJsFsiWwsDBz4wd-18" source="WpvP-rq0O9A4-NwhxeJN-5" target="WpvP-rq0O9A4-NwhxeJN-44" edge="1">
          <mxGeometry relative="1" as="geometry">
            <Array as="points">
              <mxPoint x="830" y="301" />
              <mxPoint x="830" y="890" />
              <mxPoint x="289" y="890" />
            </Array>
          </mxGeometry>
        </mxCell>
        <mxCell id="WpvP-rq0O9A4-NwhxeJN-51" style="edgeStyle=orthogonalEdgeStyle;rounded=0;orthogonalLoop=1;jettySize=auto;html=1;exitX=0;exitY=0.25;exitDx=0;exitDy=0;exitPerimeter=0;entryX=0.596;entryY=-0.006;entryDx=0;entryDy=0;entryPerimeter=0;startArrow=classic;startFill=1;" parent="sWBqQdJsFsiWwsDBz4wd-18" source="WpvP-rq0O9A4-NwhxeJN-5" target="WpvP-rq0O9A4-NwhxeJN-4" edge="1">
          <mxGeometry relative="1" as="geometry">
            <Array as="points">
              <mxPoint x="661" y="250" />
              <mxPoint x="61" y="250" />
            </Array>
          </mxGeometry>
        </mxCell>
        <mxCell id="WpvP-rq0O9A4-NwhxeJN-7" style="edgeStyle=orthogonalEdgeStyle;rounded=0;orthogonalLoop=1;jettySize=auto;html=1;" parent="sWBqQdJsFsiWwsDBz4wd-18" source="WpvP-rq0O9A4-NwhxeJN-2" target="WpvP-rq0O9A4-NwhxeJN-5" edge="1">
          <mxGeometry relative="1" as="geometry" />
        </mxCell>
        <mxCell id="yjxdZcu7dKZ7Ev10e8hE-30" value="Private subnet" style="points=[[0,0],[0.25,0],[0.5,0],[0.75,0],[1,0],[1,0.25],[1,0.5],[1,0.75],[1,1],[0.75,1],[0.5,1],[0.25,1],[0,1],[0,0.75],[0,0.5],[0,0.25]];outlineConnect=0;gradientColor=none;html=1;whiteSpace=wrap;fontSize=12;fontStyle=0;container=1;pointerEvents=0;collapsible=0;recursiveResize=0;shape=mxgraph.aws4.group;grIcon=mxgraph.aws4.group_security_group;grStroke=0;strokeColor=#147EBA;fillColor=#E6F2F8;verticalAlign=top;align=left;spacingLeft=30;fontColor=#147EBA;dashed=0;" vertex="1" parent="sWBqQdJsFsiWwsDBz4wd-18">
          <mxGeometry x="525" y="1190" width="310" height="190" as="geometry" />
        </mxCell>
        <mxCell id="yjxdZcu7dKZ7Ev10e8hE-37" style="edgeStyle=orthogonalEdgeStyle;rounded=0;orthogonalLoop=1;jettySize=auto;html=1;startArrow=classic;startFill=1;strokeColor=#FF0080;" edge="1" parent="sWBqQdJsFsiWwsDBz4wd-18" source="yjxdZcu7dKZ7Ev10e8hE-34" target="WpvP-rq0O9A4-NwhxeJN-2">
          <mxGeometry relative="1" as="geometry">
            <Array as="points">
              <mxPoint x="870" y="1420" />
              <mxPoint x="870" y="150" />
            </Array>
          </mxGeometry>
        </mxCell>
        <mxCell id="yjxdZcu7dKZ7Ev10e8hE-46" style="edgeStyle=orthogonalEdgeStyle;rounded=0;orthogonalLoop=1;jettySize=auto;html=1;exitX=0.75;exitY=1;exitDx=0;exitDy=0;exitPerimeter=0;startArrow=classic;startFill=1;strokeColor=#FF0080;" edge="1" parent="sWBqQdJsFsiWwsDBz4wd-18" source="sWBqQdJsFsiWwsDBz4wd-22" target="yjxdZcu7dKZ7Ev10e8hE-34">
          <mxGeometry relative="1" as="geometry">
            <Array as="points">
              <mxPoint x="299" y="400" />
              <mxPoint x="900" y="400" />
              <mxPoint x="900" y="1439" />
            </Array>
          </mxGeometry>
        </mxCell>
        <mxCell id="yjxdZcu7dKZ7Ev10e8hE-34" value="Card Mgmt ALB" style="sketch=0;outlineConnect=0;fontColor=#232F3E;gradientColor=none;fillColor=#4D27AA;strokeColor=none;dashed=0;verticalLabelPosition=bottom;verticalAlign=top;align=center;html=1;fontSize=12;fontStyle=0;aspect=fixed;pointerEvents=1;shape=mxgraph.aws4.application_load_balancer;" vertex="1" parent="sWBqQdJsFsiWwsDBz4wd-18">
          <mxGeometry x="461" y="1400" width="78" height="78" as="geometry" />
        </mxCell>
        <mxCell id="yjxdZcu7dKZ7Ev10e8hE-41" style="edgeStyle=orthogonalEdgeStyle;rounded=0;orthogonalLoop=1;jettySize=auto;html=1;exitX=0;exitY=0.75;exitDx=0;exitDy=0;startArrow=classic;startFill=1;strokeColor=#FF0080;" edge="1" parent="yjxdZcu7dKZ7Ev10e8hE-39" source="yjxdZcu7dKZ7Ev10e8hE-9" target="WpvP-rq0O9A4-NwhxeJN-15">
          <mxGeometry relative="1" as="geometry">
            <Array as="points">
              <mxPoint x="60" y="1325" />
              <mxPoint x="60" y="710" />
              <mxPoint x="384" y="710" />
            </Array>
          </mxGeometry>
        </mxCell>
        <mxCell id="yjxdZcu7dKZ7Ev10e8hE-9" value="" style="fillColor=none;strokeColor=#5A6C86;verticalAlign=top;fontStyle=0;fontColor=#5A6C86;" vertex="1" parent="yjxdZcu7dKZ7Ev10e8hE-39">
          <mxGeometry x="180" y="1220" width="640" height="140" as="geometry" />
        </mxCell>
        <mxCell id="yjxdZcu7dKZ7Ev10e8hE-10" value="Card Mgmt&lt;br&gt;&amp;nbsp;API 1" style="sketch=0;outlineConnect=0;fontColor=#232F3E;gradientColor=none;fillColor=#D45B07;strokeColor=none;dashed=0;verticalLabelPosition=bottom;verticalAlign=top;align=center;html=1;fontSize=12;fontStyle=0;aspect=fixed;pointerEvents=1;shape=mxgraph.aws4.container_1;" vertex="1" parent="yjxdZcu7dKZ7Ev10e8hE-39">
          <mxGeometry x="242" y="1274.5" width="48" height="31" as="geometry" />
        </mxCell>
        <mxCell id="yjxdZcu7dKZ7Ev10e8hE-11" value="Card Mgmt&lt;br&gt;&amp;nbsp;API 2" style="sketch=0;outlineConnect=0;fontColor=#232F3E;gradientColor=none;fillColor=#D45B07;strokeColor=none;dashed=0;verticalLabelPosition=bottom;verticalAlign=top;align=center;html=1;fontSize=12;fontStyle=0;aspect=fixed;pointerEvents=1;shape=mxgraph.aws4.container_1;" vertex="1" parent="yjxdZcu7dKZ7Ev10e8hE-39">
          <mxGeometry x="361" y="1274.5" width="48" height="31" as="geometry" />
        </mxCell>
        <mxCell id="yjxdZcu7dKZ7Ev10e8hE-12" value="Card Mgmt&lt;br&gt;&amp;nbsp;API 1" style="sketch=0;outlineConnect=0;fontColor=#232F3E;gradientColor=none;fillColor=#D45B07;strokeColor=none;dashed=0;verticalLabelPosition=bottom;verticalAlign=top;align=center;html=1;fontSize=12;fontStyle=0;aspect=fixed;pointerEvents=1;shape=mxgraph.aws4.container_1;" vertex="1" parent="yjxdZcu7dKZ7Ev10e8hE-39">
          <mxGeometry x="591" y="1274.5" width="48" height="31" as="geometry" />
        </mxCell>
        <mxCell id="yjxdZcu7dKZ7Ev10e8hE-13" value="&lt;span style=&quot;color: rgba(0 , 0 , 0 , 0) ; font-family: monospace ; font-size: 0px&quot;&gt;C&lt;/span&gt;" style="sketch=0;outlineConnect=0;fontColor=#232F3E;gradientColor=none;fillColor=#D45B07;strokeColor=none;dashed=0;verticalLabelPosition=bottom;verticalAlign=top;align=center;html=1;fontSize=12;fontStyle=0;aspect=fixed;pointerEvents=1;shape=mxgraph.aws4.container_1;" vertex="1" parent="yjxdZcu7dKZ7Ev10e8hE-39">
          <mxGeometry x="710" y="1274.5" width="48" height="31" as="geometry" />
        </mxCell>
        <mxCell id="yjxdZcu7dKZ7Ev10e8hE-14" value="EKS Cluster" style="sketch=0;points=[[0,0,0],[0.25,0,0],[0.5,0,0],[0.75,0,0],[1,0,0],[0,1,0],[0.25,1,0],[0.5,1,0],[0.75,1,0],[1,1,0],[0,0.25,0],[0,0.5,0],[0,0.75,0],[1,0.25,0],[1,0.5,0],[1,0.75,0]];outlineConnect=0;fontColor=#232F3E;gradientColor=#F78E04;gradientDirection=north;fillColor=#D05C17;strokeColor=#ffffff;dashed=0;verticalLabelPosition=bottom;verticalAlign=top;align=center;html=1;fontSize=12;fontStyle=0;aspect=fixed;shape=mxgraph.aws4.resourceIcon;resIcon=mxgraph.aws4.eks;" vertex="1" parent="yjxdZcu7dKZ7Ev10e8hE-39">
          <mxGeometry x="180" y="1220" width="40" height="40" as="geometry" />
        </mxCell>
        <mxCell id="yjxdZcu7dKZ7Ev10e8hE-15" value="Ingress" style="sketch=0;html=1;dashed=0;whitespace=wrap;fillColor=#2875E2;strokeColor=#ffffff;points=[[0.005,0.63,0],[0.1,0.2,0],[0.9,0.2,0],[0.5,0,0],[0.995,0.63,0],[0.72,0.99,0],[0.5,1,0],[0.28,0.99,0]];shape=mxgraph.kubernetes.icon;prIcon=ing;labelPosition=left;verticalLabelPosition=top;align=right;verticalAlign=bottom;" vertex="1" parent="yjxdZcu7dKZ7Ev10e8hE-39">
          <mxGeometry x="475" y="1220" width="50" height="48" as="geometry" />
        </mxCell>
        <mxCell id="yjxdZcu7dKZ7Ev10e8hE-16" value="Service" style="sketch=0;html=1;dashed=0;whitespace=wrap;fillColor=#2875E2;strokeColor=#ffffff;points=[[0.005,0.63,0],[0.1,0.2,0],[0.9,0.2,0],[0.5,0,0],[0.995,0.63,0],[0.72,0.99,0],[0.5,1,0],[0.28,0.99,0]];shape=mxgraph.kubernetes.icon;prIcon=svc;labelPosition=center;verticalLabelPosition=top;align=center;verticalAlign=bottom;" vertex="1" parent="yjxdZcu7dKZ7Ev10e8hE-39">
          <mxGeometry x="296" y="1220" width="50" height="48" as="geometry" />
        </mxCell>
        <mxCell id="yjxdZcu7dKZ7Ev10e8hE-17" value="Service" style="sketch=0;html=1;dashed=0;whitespace=wrap;fillColor=#2875E2;strokeColor=#ffffff;points=[[0.005,0.63,0],[0.1,0.2,0],[0.9,0.2,0],[0.5,0,0],[0.995,0.63,0],[0.72,0.99,0],[0.5,1,0],[0.28,0.99,0]];shape=mxgraph.kubernetes.icon;prIcon=svc;labelPosition=center;verticalLabelPosition=top;align=center;verticalAlign=bottom;" vertex="1" parent="yjxdZcu7dKZ7Ev10e8hE-39">
          <mxGeometry x="651" y="1220" width="50" height="48" as="geometry" />
        </mxCell>
        <mxCell id="yjxdZcu7dKZ7Ev10e8hE-28" style="edgeStyle=orthogonalEdgeStyle;rounded=0;orthogonalLoop=1;jettySize=auto;html=1;entryX=0.212;entryY=0.972;entryDx=0;entryDy=0;entryPerimeter=0;startArrow=classic;startFill=1;strokeColor=#FF0080;" edge="1" parent="yjxdZcu7dKZ7Ev10e8hE-39" source="yjxdZcu7dKZ7Ev10e8hE-9" target="WpvP-rq0O9A4-NwhxeJN-4">
          <mxGeometry relative="1" as="geometry" />
        </mxCell>
        <mxCell id="yjxdZcu7dKZ7Ev10e8hE-32" style="edgeStyle=orthogonalEdgeStyle;rounded=0;orthogonalLoop=1;jettySize=auto;html=1;entryX=0.142;entryY=-0.007;entryDx=0;entryDy=0;entryPerimeter=0;startArrow=classic;startFill=1;strokeColor=#FF0080;" edge="1" parent="yjxdZcu7dKZ7Ev10e8hE-39" source="WpvP-rq0O9A4-NwhxeJN-44" target="yjxdZcu7dKZ7Ev10e8hE-9">
          <mxGeometry relative="1" as="geometry" />
        </mxCell>
        <mxCell id="yjxdZcu7dKZ7Ev10e8hE-35" style="edgeStyle=orthogonalEdgeStyle;rounded=0;orthogonalLoop=1;jettySize=auto;html=1;startArrow=classic;startFill=1;" edge="1" parent="yjxdZcu7dKZ7Ev10e8hE-39" source="yjxdZcu7dKZ7Ev10e8hE-34" target="yjxdZcu7dKZ7Ev10e8hE-15">
          <mxGeometry relative="1" as="geometry" />
        </mxCell>
        <mxCell id="yjxdZcu7dKZ7Ev10e8hE-18" style="edgeStyle=orthogonalEdgeStyle;rounded=0;orthogonalLoop=1;jettySize=auto;html=1;exitX=0.005;exitY=0.63;exitDx=0;exitDy=0;exitPerimeter=0;entryX=0.995;entryY=0.63;entryDx=0;entryDy=0;entryPerimeter=0;startArrow=classic;startFill=1;" edge="1" parent="yjxdZcu7dKZ7Ev10e8hE-39" source="yjxdZcu7dKZ7Ev10e8hE-15" target="yjxdZcu7dKZ7Ev10e8hE-16">
          <mxGeometry relative="1" as="geometry" />
        </mxCell>
        <mxCell id="yjxdZcu7dKZ7Ev10e8hE-19" style="edgeStyle=orthogonalEdgeStyle;rounded=0;orthogonalLoop=1;jettySize=auto;html=1;exitX=0.005;exitY=0.63;exitDx=0;exitDy=0;exitPerimeter=0;startArrow=classic;startFill=1;" edge="1" parent="yjxdZcu7dKZ7Ev10e8hE-39" source="yjxdZcu7dKZ7Ev10e8hE-16" target="yjxdZcu7dKZ7Ev10e8hE-10">
          <mxGeometry relative="1" as="geometry" />
        </mxCell>
        <mxCell id="yjxdZcu7dKZ7Ev10e8hE-20" style="edgeStyle=orthogonalEdgeStyle;rounded=0;orthogonalLoop=1;jettySize=auto;html=1;exitX=0.28;exitY=0.99;exitDx=0;exitDy=0;exitPerimeter=0;startArrow=classic;startFill=1;" edge="1" parent="yjxdZcu7dKZ7Ev10e8hE-39" source="yjxdZcu7dKZ7Ev10e8hE-16" target="yjxdZcu7dKZ7Ev10e8hE-12">
          <mxGeometry relative="1" as="geometry">
            <Array as="points">
              <mxPoint x="310" y="1350" />
              <mxPoint x="615" y="1350" />
            </Array>
          </mxGeometry>
        </mxCell>
        <mxCell id="yjxdZcu7dKZ7Ev10e8hE-21" style="edgeStyle=orthogonalEdgeStyle;rounded=0;orthogonalLoop=1;jettySize=auto;html=1;exitX=0.995;exitY=0.63;exitDx=0;exitDy=0;exitPerimeter=0;entryX=0.005;entryY=0.63;entryDx=0;entryDy=0;entryPerimeter=0;startArrow=classic;startFill=1;" edge="1" parent="yjxdZcu7dKZ7Ev10e8hE-39" source="yjxdZcu7dKZ7Ev10e8hE-15" target="yjxdZcu7dKZ7Ev10e8hE-17">
          <mxGeometry relative="1" as="geometry" />
        </mxCell>
        <mxCell id="yjxdZcu7dKZ7Ev10e8hE-22" style="edgeStyle=orthogonalEdgeStyle;rounded=0;orthogonalLoop=1;jettySize=auto;html=1;exitX=0.995;exitY=0.63;exitDx=0;exitDy=0;exitPerimeter=0;startArrow=classic;startFill=1;" edge="1" parent="yjxdZcu7dKZ7Ev10e8hE-39" source="yjxdZcu7dKZ7Ev10e8hE-17" target="yjxdZcu7dKZ7Ev10e8hE-13">
          <mxGeometry relative="1" as="geometry" />
        </mxCell>
        <mxCell id="yjxdZcu7dKZ7Ev10e8hE-23" style="edgeStyle=orthogonalEdgeStyle;rounded=0;orthogonalLoop=1;jettySize=auto;html=1;exitX=0.28;exitY=0.99;exitDx=0;exitDy=0;exitPerimeter=0;startArrow=classic;startFill=1;" edge="1" parent="yjxdZcu7dKZ7Ev10e8hE-39" source="yjxdZcu7dKZ7Ev10e8hE-17" target="yjxdZcu7dKZ7Ev10e8hE-11">
          <mxGeometry relative="1" as="geometry">
            <Array as="points">
              <mxPoint x="665" y="1340" />
              <mxPoint x="425" y="1340" />
              <mxPoint x="425" y="1290" />
            </Array>
          </mxGeometry>
        </mxCell>
        <mxCell id="yjxdZcu7dKZ7Ev10e8hE-49" style="edgeStyle=orthogonalEdgeStyle;rounded=0;orthogonalLoop=1;jettySize=auto;html=1;exitX=0.25;exitY=1;exitDx=0;exitDy=0;entryX=0;entryY=0.25;entryDx=0;entryDy=0;startArrow=classic;startFill=1;strokeColor=#FF0080;" edge="1" parent="yjxdZcu7dKZ7Ev10e8hE-39" source="WpvP-rq0O9A4-NwhxeJN-39" target="yjxdZcu7dKZ7Ev10e8hE-9">
          <mxGeometry relative="1" as="geometry">
            <Array as="points">
              <mxPoint x="390" y="930" />
              <mxPoint x="120" y="930" />
              <mxPoint x="120" y="1255" />
            </Array>
          </mxGeometry>
        </mxCell>
        <mxCell id="yjxdZcu7dKZ7Ev10e8hE-51" style="edgeStyle=orthogonalEdgeStyle;rounded=0;orthogonalLoop=1;jettySize=auto;html=1;exitX=0.5;exitY=1;exitDx=0;exitDy=0;entryX=0;entryY=0.25;entryDx=0;entryDy=0;startArrow=classic;startFill=1;strokeColor=#FF0080;" edge="1" parent="yjxdZcu7dKZ7Ev10e8hE-39" source="WpvP-rq0O9A4-NwhxeJN-41" target="yjxdZcu7dKZ7Ev10e8hE-9">
          <mxGeometry relative="1" as="geometry">
            <Array as="points">
              <mxPoint x="710" y="930" />
              <mxPoint x="120" y="930" />
              <mxPoint x="120" y="1255" />
            </Array>
          </mxGeometry>
        </mxCell>
        <mxCell id="sWBqQdJsFsiWwsDBz4wd-4" value="Corporate data center" style="points=[[0,0],[0.25,0],[0.5,0],[0.75,0],[1,0],[1,0.25],[1,0.5],[1,0.75],[1,1],[0.75,1],[0.5,1],[0.25,1],[0,1],[0,0.75],[0,0.5],[0,0.25]];outlineConnect=0;gradientColor=none;html=1;whiteSpace=wrap;fontSize=12;fontStyle=0;container=1;pointerEvents=0;collapsible=0;recursiveResize=0;shape=mxgraph.aws4.group;grIcon=mxgraph.aws4.group_corporate_data_center;strokeColor=#5A6C86;fillColor=none;verticalAlign=top;align=left;spacingLeft=30;fontColor=#5A6C86;dashed=0;" parent="1" vertex="1">
          <mxGeometry x="50" y="40" width="270" height="160" as="geometry" />
        </mxCell>
        <mxCell id="WpvP-rq0O9A4-NwhxeJN-10" style="edgeStyle=orthogonalEdgeStyle;rounded=0;orthogonalLoop=1;jettySize=auto;html=1;entryX=0;entryY=0.5;entryDx=0;entryDy=0;entryPerimeter=0;" parent="sWBqQdJsFsiWwsDBz4wd-4" source="sWBqQdJsFsiWwsDBz4wd-7" target="sWBqQdJsFsiWwsDBz4wd-8" edge="1">
          <mxGeometry relative="1" as="geometry" />
        </mxCell>
        <mxCell id="sWBqQdJsFsiWwsDBz4wd-7" value="S Router" style="sketch=0;outlineConnect=0;fontColor=#232F3E;gradientColor=none;fillColor=#232F3D;strokeColor=none;dashed=0;verticalLabelPosition=bottom;verticalAlign=top;align=center;html=1;fontSize=12;fontStyle=0;aspect=fixed;pointerEvents=1;shape=mxgraph.aws4.traditional_server;" parent="sWBqQdJsFsiWwsDBz4wd-4" vertex="1">
          <mxGeometry x="43" y="42" width="45" height="78" as="geometry" />
        </mxCell>
        <mxCell id="sWBqQdJsFsiWwsDBz4wd-8" value="Customer Gateway" style="outlineConnect=0;dashed=0;verticalLabelPosition=bottom;verticalAlign=top;align=center;html=1;shape=mxgraph.aws3.customer_gateway;fillColor=#F58536;gradientColor=none;" parent="sWBqQdJsFsiWwsDBz4wd-4" vertex="1">
          <mxGeometry x="180" y="46" width="69" height="72" as="geometry" />
        </mxCell>
        <mxCell id="sWBqQdJsFsiWwsDBz4wd-11" style="edgeStyle=orthogonalEdgeStyle;rounded=0;orthogonalLoop=1;jettySize=auto;html=1;exitX=1;exitY=0.5;exitDx=0;exitDy=0;exitPerimeter=0;entryX=0.5;entryY=0;entryDx=0;entryDy=0;entryPerimeter=0;startArrow=classic;startFill=1;" parent="1" source="sWBqQdJsFsiWwsDBz4wd-8" target="sWBqQdJsFsiWwsDBz4wd-10" edge="1">
          <mxGeometry relative="1" as="geometry">
            <Array as="points">
              <mxPoint x="380" y="122" />
              <mxPoint x="380" y="244" />
              <mxPoint x="316" y="244" />
            </Array>
          </mxGeometry>
        </mxCell>
        <mxCell id="sWBqQdJsFsiWwsDBz4wd-12" value="VPN Connection" style="outlineConnect=0;dashed=0;verticalLabelPosition=bottom;verticalAlign=top;align=center;html=1;shape=mxgraph.aws3.vpn_connection;fillColor=#F58534;gradientColor=none;" parent="1" vertex="1">
          <mxGeometry x="350" y="152" width="58.5" height="48" as="geometry" />
        </mxCell>
        <mxCell id="WpvP-rq0O9A4-NwhxeJN-9" value="HSM" style="sketch=0;outlineConnect=0;fontColor=#232F3E;gradientColor=none;fillColor=#232F3D;strokeColor=none;dashed=0;verticalLabelPosition=top;verticalAlign=bottom;align=center;html=1;fontSize=12;fontStyle=0;aspect=fixed;pointerEvents=1;shape=mxgraph.aws4.traditional_server;labelPosition=center;" parent="1" vertex="1">
          <mxGeometry x="768" y="80" width="45" height="78" as="geometry" />
        </mxCell>
        <mxCell id="WpvP-rq0O9A4-NwhxeJN-11" style="edgeStyle=orthogonalEdgeStyle;rounded=0;orthogonalLoop=1;jettySize=auto;html=1;exitX=1;exitY=0.5;exitDx=0;exitDy=0;exitPerimeter=0;startArrow=classic;startFill=1;" parent="1" source="sWBqQdJsFsiWwsDBz4wd-22" target="WpvP-rq0O9A4-NwhxeJN-9" edge="1">
          <mxGeometry relative="1" as="geometry">
            <Array as="points">
              <mxPoint x="440" y="920" />
              <mxPoint x="440" y="980" />
              <mxPoint x="870" y="980" />
              <mxPoint x="870" y="119" />
            </Array>
          </mxGeometry>
        </mxCell>
        <mxCell id="WpvP-rq0O9A4-NwhxeJN-12" style="edgeStyle=orthogonalEdgeStyle;rounded=0;orthogonalLoop=1;jettySize=auto;html=1;exitX=1;exitY=0.5;exitDx=0;exitDy=0;exitPerimeter=0;startArrow=classic;startFill=1;" parent="1" source="WpvP-rq0O9A4-NwhxeJN-5" target="WpvP-rq0O9A4-NwhxeJN-9" edge="1">
          <mxGeometry relative="1" as="geometry" />
        </mxCell>
        <mxCell id="yjxdZcu7dKZ7Ev10e8hE-44" style="edgeStyle=orthogonalEdgeStyle;rounded=0;orthogonalLoop=1;jettySize=auto;html=1;exitX=1;exitY=0.5;exitDx=0;exitDy=0;startArrow=classic;startFill=1;strokeColor=#FF0080;" edge="1" parent="1" source="yjxdZcu7dKZ7Ev10e8hE-9" target="WpvP-rq0O9A4-NwhxeJN-9">
          <mxGeometry relative="1" as="geometry">
            <Array as="points">
              <mxPoint x="1010" y="1890" />
              <mxPoint x="1010" y="110" />
            </Array>
          </mxGeometry>
        </mxCell>
      </root>
    </mxGraphModel>
  </diagram>
</mxfile>
